<?xml version="1.0" standalone="no"?><!DOCTYPE svg PUBLIC "-//W3C//DTD SVG 1.1//EN" "http://www.w3.org/Graphics/SVG/1.1/DTD/svg11.dtd"><svg t="1591867201624" class="icon" viewBox="0 0 1024 1024" version="1.1" xmlns="http://www.w3.org/2000/svg" p-id="4654" xmlns:xlink="http://www.w3.org/1999/xlink" width="200" height="200"><defs><style type="text/css"></style></defs><path d="M186.181818 412.532364a46.545455 46.545455 0 1 1-93.090909 0V93.090909a93.090909 93.090909 0 0 1 93.090909-93.090909h651.636364a93.090909 93.090909 0 0 1 93.090909 93.090909v325.818182a46.545455 46.545455 0 0 1-93.090909 0V93.090909H186.181818v319.441455z" fill="#bfbfbf" p-id="4655"></path><path d="M93.090909 456.424727V884.363636a46.545455 46.545455 0 0 0 46.545455 46.545455h744.727272a46.545455 46.545455 0 0 0 46.545455-46.545455v-324.747636a46.545455 46.545455 0 1 1 93.090909 0V884.363636a139.636364 139.636364 0 0 1-139.636364 139.636364H139.636364a139.636364 139.636364 0 0 1-139.636364-139.636364V373.434182a46.545455 46.545455 0 0 1 70.842182-39.749818L512 603.368727l441.157818-269.684363a46.545455 46.545455 0 0 1 48.593455 79.453091l-465.454546 284.532363a46.545455 46.545455 0 0 1-48.593454 0L93.090909 456.424727z" fill="#bfbfbf" p-id="4656"></path><path d="M850.571636 312.040727a46.545455 46.545455 0 1 1 66.094546-65.536L1010.501818 341.178182a46.545455 46.545455 0 0 1-66.094545 65.536l-93.835637-94.673455zM93.090909 466.245818a46.545455 46.545455 0 0 1-93.090909 0V373.946182a46.545455 46.545455 0 0 1 13.358545-32.581818l93.09091-94.72A46.545455 46.545455 0 0 1 172.823273 311.854545L93.090909 392.983273v73.262545zM558.545455 469.085091a46.545455 46.545455 0 0 1-93.09091 0V190.138182a46.545455 46.545455 0 0 1 93.09091 0v278.946909z" fill="#bfbfbf" p-id="4657"></path><path d="M637.952 249.949091a46.545455 46.545455 0 0 1-65.722182 65.908364l-93.090909-92.765091a46.545455 46.545455 0 0 1 65.722182-65.908364l93.090909 92.718545z" fill="#bfbfbf" p-id="4658"></path><path d="M451.770182 315.857455A46.545455 46.545455 0 0 1 386.048 249.949091l93.090909-92.718546a46.545455 46.545455 0 0 1 65.722182 65.908364l-93.090909 92.765091z" fill="#bfbfbf" p-id="4659"></path></svg>