<?xml version="1.0" standalone="no"?><!DOCTYPE svg PUBLIC "-//W3C//DTD SVG 1.1//EN" "http://www.w3.org/Graphics/SVG/1.1/DTD/svg11.dtd"><svg t="1590922316944" class="icon" viewBox="0 0 1024 1024" version="1.1" xmlns="http://www.w3.org/2000/svg" p-id="1149" xmlns:xlink="http://www.w3.org/1999/xlink" width="200" height="200"><defs><style type="text/css"></style></defs><path d="M810.666667 405.333333c-1.130667 0-2.218667 0-3.328 0.042667a298.474667 298.474667 0 0 0-565.397334-84.906667A213.333333 213.333333 0 0 0 256 746.666667h187.733333v-88.106667a68.266667 68.266667 0 0 1-77.162666-112.106667l102.378666-83.2a68.245333 68.245333 0 0 1 86.144 0.042667l102.378667 83.178667a68.266667 68.266667 0 0 1-43.093333 121.237333 68.821333 68.821333 0 0 1-34.112-9.130667V746.666667H810.666667a170.666667 170.666667 0 0 0 0-341.333334z" fill="#646464" p-id="1150"></path><path d="M614.378667 625.045333a25.6 25.6 0 0 0 16.170666-45.461333l-102.4-83.2a25.536 25.536 0 0 0-32.298666 0l-102.4 83.2a25.6 25.6 0 0 0 32.298666 39.744l60.629334-49.28v279.04a25.6 25.6 0 0 0 51.2 0v-279.04l60.650666 49.28a25.6 25.6 0 0 0 16.149334 5.717333z" fill="#646464" p-id="1151"></path></svg>